<?xml version="1.0" encoding="UTF-8"?>
<!DOCTYPE svg PUBLIC "-//W3C//DTD SVG 1.1//EN" "http://www.w3.org/Graphics/SVG/1.1/DTD/svg11.dtd">
<svg xmlns="http://www.w3.org/2000/svg" version="1.1" width="1024px" height="1024px" style="shape-rendering:geometricPrecision; text-rendering:geometricPrecision; image-rendering:optimizeQuality; fill-rule:evenodd; clip-rule:evenodd" xmlns:xlink="http://www.w3.org/1999/xlink">
<g><path style="opacity:1" fill="#050607" d="M -0.5,-0.5 C 340.833,-0.5 682.167,-0.5 1023.5,-0.5C 1023.5,340.833 1023.5,682.167 1023.5,1023.5C 682.167,1023.5 340.833,1023.5 -0.5,1023.5C -0.5,682.167 -0.5,340.833 -0.5,-0.5 Z"/></g>
<g><path style="opacity:1" fill="#040405" d="M 206.5,200.5 C 384.586,200.784 562.252,200.784 739.5,200.5C 741.964,200.59 744.13,201.257 746,202.5C 750.246,201.201 754.746,200.534 759.5,200.5C 769.201,200.921 778.868,200.921 788.5,200.5C 792.595,200.542 796.429,201.208 800,202.5C 809.237,200.543 818.737,199.876 828.5,200.5C 828.186,217.227 828.186,233.56 828.5,249.5C 827.975,250.192 827.308,250.692 826.5,251C 827.428,251.388 828.095,252.055 828.5,253C 827.845,259.34 827.845,265.506 828.5,271.5C 827.975,272.192 827.308,272.692 826.5,273C 827.624,273.839 828.291,275.006 828.5,276.5C 828.252,318.598 828.252,362.098 828.5,407C 828.325,408.658 827.658,409.991 826.5,411C 827.783,414.064 828.45,417.397 828.5,421C 828.45,424.603 827.783,427.936 826.5,431C 827.766,433.383 828.432,436.05 828.5,439C 827.971,467.558 827.971,496.392 828.5,525.5C 828.182,526.647 827.516,527.481 826.5,528C 827.516,528.519 828.182,529.353 828.5,530.5C 828.449,574.243 828.449,618.243 828.5,662.5C 824.5,662.833 824.5,663.167 828.5,663.5C 828.002,666.674 828.002,670.007 828.5,673.5C 824.5,673.833 824.5,674.167 828.5,674.5C 828.422,692.932 828.422,711.765 828.5,731C 828.432,733.95 827.766,736.617 826.5,739C 827.733,740.698 828.4,742.698 828.5,745C 828.24,752.61 828.24,760.277 828.5,768C 828.095,768.945 827.428,769.612 826.5,770C 827.578,770.674 828.245,771.674 828.5,773C 828.348,777.391 828.348,781.724 828.5,786C 827.833,786.333 827.167,786.667 826.5,787C 827.624,787.839 828.291,789.006 828.5,790.5C 827.837,792.49 827.837,794.323 828.5,796C 828.095,796.945 827.428,797.612 826.5,798C 827.624,798.839 828.291,800.006 828.5,801.5C 827.167,803.833 827.167,806.167 828.5,808.5C 828.291,809.994 827.624,811.161 826.5,812C 827.167,812.333 827.833,812.667 828.5,813C 827.603,815.882 827.603,818.882 828.5,822C 794.494,822.36 760.327,822.526 726,822.5C 715.439,822.488 705.106,821.821 695,820.5C 685.228,821.82 675.228,822.487 665,822.5C 512.306,822.618 359.473,822.452 206.5,822C 207.167,821.667 207.833,821.333 208.5,821C 206.885,817.923 205.885,814.59 205.5,811C 206.167,809.667 206.833,808.333 207.5,807C 206.833,804.333 206.167,801.667 205.5,799C 206.167,796.333 206.833,793.667 207.5,791C 206.075,789.286 206.408,787.953 208.5,787C 207.28,785.475 206.613,783.641 206.5,781.5C 206.54,779.571 206.873,777.738 207.5,776C 206.833,775.667 206.167,775.333 205.5,775C 206.275,749.711 206.275,725.377 205.5,702C 207.312,698.791 207.312,695.791 205.5,693C 205.888,691.475 205.888,689.808 205.5,688C 207.791,685.922 207.791,683.755 205.5,681.5C 205.578,645.872 205.578,609.372 205.5,572C 208.028,570.684 208.028,569.517 205.5,568.5C 206.226,560.619 206.226,552.952 205.5,545.5C 207.475,544.212 207.475,542.545 205.5,540.5C 206.131,538.522 206.131,536.355 205.5,534C 207.539,531.615 207.539,529.448 205.5,527.5C 206.325,510.008 206.325,492.841 205.5,476C 208.167,474.667 208.167,473.333 205.5,472C 206.668,458.413 206.668,445.079 205.5,432C 206.5,431.667 207.5,431.333 208.5,431C 206.968,430.3 205.968,429.134 205.5,427.5C 206.271,407.814 206.271,388.48 205.5,369.5C 206.376,368.749 207.376,368.249 208.5,368C 206.885,364.923 205.885,361.59 205.5,358C 205.521,337.344 205.521,316.344 205.5,295C 207.513,293.209 207.513,291.875 205.5,291C 205.944,287.89 205.944,284.556 205.5,281C 208.167,280.333 208.167,279.667 205.5,279C 206.568,275.393 206.568,272.06 205.5,269C 206.167,267.667 207.167,266.667 208.5,266C 206.909,263.614 205.909,260.947 205.5,258C 205.813,246.469 205.813,234.969 205.5,223.5C 209.361,222.402 209.361,221.569 205.5,221C 205.905,213.822 206.238,206.989 206.5,200.5 Z"/></g>
<g><path style="opacity:1" fill="#f4f4f4" d="M 658.5,232.5 C 716.595,231.786 752.761,259.452 767,315.5C 771.418,348.403 768.751,380.736 759,412.5C 747.091,449.909 731.258,485.576 711.5,519.5C 724.442,542.61 736.276,566.277 747,590.5C 756.285,613.411 762.952,637.077 767,661.5C 772.052,694.612 765.718,725.278 748,753.5C 722.354,785.56 688.854,800.06 647.5,797C 598.15,790.729 553.316,773.229 513,744.5C 479.23,768.654 442.063,785.487 401.5,795C 369.079,802.082 338.412,797.749 309.5,782C 279.537,762.262 262.703,734.428 259,698.5C 256.784,671.109 260.117,644.443 269,618.5C 280.244,583.896 295.411,551.229 314.5,520.5C 287.462,476.22 268.629,428.554 258,377.5C 251.775,348.213 253.775,319.546 264,291.5C 285.404,248.335 320.238,229.168 368.5,234C 402.96,238.558 435.627,248.891 466.5,265C 481.929,273.462 497.095,282.295 512,291.5C 524.734,283.548 537.567,275.714 550.5,268C 584.138,248.62 620.138,236.787 658.5,232.5 Z"/></g>
<g><path style="opacity:1" fill="#040505" d="M 351.5,285.5 C 369.363,285.773 386.696,288.939 403.5,295C 426.058,303.607 447.058,314.774 466.5,328.5C 420.918,369.232 381.752,415.232 349,466.5C 326.36,427.532 313.193,385.532 309.5,340.5C 309.758,326.675 313.591,314.008 321,302.5C 329.298,293.272 339.465,287.605 351.5,285.5 Z"/></g>
<g><path style="opacity:1" fill="#040505" d="M 654.5,285.5 C 687.71,282.882 707.543,297.882 714,330.5C 714.769,363.879 708.436,395.879 695,426.5C 689.483,439.868 683.15,452.868 676,465.5C 642.922,414.899 603.756,369.232 558.5,328.5C 587.058,306.556 619.058,292.223 654.5,285.5 Z"/></g>
<g><path style="opacity:1" fill="#040405" d="M 511.5,364.5 C 519.234,370.057 526.567,376.223 533.5,383C 575.022,424.33 611.022,469.83 641.5,519.5C 606.646,577.215 563.812,628.548 513,673.5C 462.398,628.588 419.564,577.421 384.5,520C 418.829,461.818 461.162,409.984 511.5,364.5 Z"/></g>
<g><path style="opacity:1" fill="#050506" d="M 674.5,575.5 C 676.074,575.937 677.241,576.937 678,578.5C 694.332,607.158 705.332,637.824 711,670.5C 715.567,721.599 692.4,745.099 641.5,741C 612.239,735.471 585.239,724.471 560.5,708C 605.261,669.423 643.261,625.257 674.5,575.5 Z"/></g>
<g><path style="opacity:1" fill="#040505" d="M 348.5,574.5 C 375.782,614.786 406.782,652.286 441.5,687C 449.037,694.206 456.871,701.04 465,707.5C 465.688,708.332 465.521,708.998 464.5,709.5C 439.307,725.591 411.974,736.425 382.5,742C 360.095,745.532 341.262,739.032 326,722.5C 317.459,711.012 313.625,698.012 314.5,683.5C 317.21,653.874 324.71,625.54 337,598.5C 341.101,590.631 344.935,582.631 348.5,574.5 Z"/></g>
</svg>
