<?xml version="1.0" standalone="no"?>
<!DOCTYPE svg PUBLIC "-//W3C//DTD SVG 20010904//EN"
 "http://www.w3.org/TR/2001/REC-SVG-20010904/DTD/svg10.dtd">
<svg version="1.0" xmlns="http://www.w3.org/2000/svg"
 width="1024.000000pt" height="1024.000000pt" viewBox="0 0 1024.000000 1024.000000"
 preserveAspectRatio="xMidYMid meet">

<g transform="translate(0.000000,1024.000000) scale(0.100000,-0.100000)"
fill="#000000" stroke="none">
<path d="M0 5120 l0 -5120 5120 0 5120 0 0 5120 0 5120 -5120 0 -5120 0 0
-5120z m6910 2761 c237 -53 421 -169 561 -353 248 -329 292 -783 132 -1373
-85 -317 -244 -691 -427 -1008 -31 -53 -56 -102 -56 -107 0 -6 30 -64 67 -128
246 -433 411 -859 472 -1222 80 -474 -19 -850 -294 -1121 -186 -182 -410 -282
-670 -298 -242 -15 -462 18 -745 111 -238 78 -426 168 -684 326 l-130 79 -105
-65 c-288 -178 -492 -279 -721 -355 -247 -82 -383 -107 -586 -107 -305 0 -529
73 -740 241 -81 64 -141 131 -210 235 -144 216 -203 475 -182 789 26 381 207
890 495 1392 l64 112 -79 143 c-252 457 -424 917 -486 1298 -49 305 -42 520
26 745 74 247 263 473 493 588 228 114 497 127 865 41 333 -77 747 -264 1136
-514 19 -12 32 -7 140 62 385 242 687 382 974 451 107 26 259 53 340 61 85 8
265 -4 350 -23z"/>
<path d="M3481 7370 c-126 -27 -246 -116 -304 -227 -55 -106 -70 -178 -70
-328 1 -314 120 -725 330 -1138 31 -60 59 -105 63 -100 4 4 46 67 95 138 276
407 602 792 924 1092 80 75 147 140 149 144 9 22 -389 238 -581 314 -224 89
-476 132 -606 105z"/>
<path d="M6515 7373 c-57 -8 -190 -43 -275 -71 -178 -61 -385 -165 -562 -284
-49 -32 -88 -62 -87 -66 0 -4 38 -41 85 -82 106 -94 333 -324 447 -454 172
-194 432 -529 577 -744 l63 -93 24 43 c260 452 414 1050 347 1351 -46 208
-179 356 -355 396 -43 10 -203 12 -264 4z"/>
<path d="M4964 6441 c-87 -82 -170 -162 -184 -178 -14 -16 -72 -81 -130 -144
-134 -144 -271 -309 -390 -469 -98 -130 -410 -597 -410 -612 0 -4 23 -45 52
-91 287 -460 673 -927 1063 -1289 l169 -156 61 51 c120 103 443 436 582 600
209 248 417 529 577 780 l67 105 -57 88 c-296 463 -489 712 -855 1104 -111
118 -355 350 -378 358 -4 1 -79 -65 -167 -147z"/>
<path d="M3433 4363 c-192 -397 -297 -784 -280 -1033 19 -263 170 -447 415
-505 98 -24 279 -16 412 18 106 27 256 82 370 133 93 43 311 167 307 175 -1 4
-47 46 -102 95 -304 268 -631 640 -916 1039 -63 89 -121 171 -129 184 -15 22
-17 18 -77 -106z"/>
<path d="M6719 4422 c-183 -289 -564 -759 -787 -972 -126 -120 -214 -202 -266
-247 l-58 -52 48 -30 c270 -170 658 -301 894 -301 307 0 497 145 554 424 46
227 -14 540 -176 915 -51 119 -157 321 -167 321 -3 0 -22 -26 -42 -58z"/>
</g>
</svg>
